#N canvas 551 161 210 215 10;
#X obj 56 33 adc~;
#N canvas 677 27 650 403 recorder 1;
#X obj 339 22 inlet~;
#X obj 48 27 inlet~;
#X obj 196 355 outlet~;
#X text 97 26 adc;
#X text 384 21 player;
#X text 252 354 to player;
#X obj 66 82 delwrite~ adcDelay 2000;
#X obj 362 81 delwrite~ playerDelay 2000;
#X text 213 79 buffer 2 seconds;
#X text 529 79 buffer 2 seconds;
#X obj 50 205 +~;
#X floatatom 96 140 5 0 0 0 - - -;
#X obj 99 110 hsl 128 15 0 2000 0 0 empty empty empty -2 -8 0 10 -262144
-1 -1 3200 1;
#X text 232 109 delay time;
#X obj 96 177 delread~ adcDelay;
#X obj 96 204 *~;
#X obj 196 332 *~;
#X obj 137 205 tgl 15 0 empty empty empty 17 7 0 10 -262144 -1 -1 1
1;
#X obj 168 204 loadbang;
#X obj 339 200 +~;
#X floatatom 385 137 5 0 0 0 - - -;
#X obj 388 105 hsl 128 15 0 2000 0 0 empty empty empty -2 -8 0 10 -262144
-1 -1 3200 1;
#X text 521 104 delay time;
#X obj 385 199 *~;
#X obj 426 200 tgl 15 0 empty empty empty 17 7 0 10 -262144 -1 -1 1
1;
#X obj 457 199 loadbang;
#X obj 385 172 delread~ playerDelay;
#X connect 0 0 7 0;
#X connect 0 0 19 0;
#X connect 1 0 10 0;
#X connect 1 0 6 0;
#X connect 10 0 16 0;
#X connect 11 0 14 0;
#X connect 12 0 11 0;
#X connect 14 0 15 0;
#X connect 15 0 10 1;
#X connect 16 0 2 0;
#X connect 17 0 15 1;
#X connect 18 0 17 0;
#X connect 19 0 16 1;
#X connect 20 0 26 0;
#X connect 21 0 20 0;
#X connect 23 0 19 1;
#X connect 24 0 23 1;
#X connect 25 0 24 0;
#X connect 26 0 23 0;
#X restore 67 87 pd recorder;
#X obj 108 161 dac~;
#N canvas 0 22 450 300 player 1;
#X obj 184 -177 inlet~;
#X obj 48 45 outlet~;
#X text 230 -177 from recorder;
#X text 105 46 to recorder;
#X obj 300 42 outlet~;
#X text 350 42 to dac;
#X obj 200 -132 delwrite~ holdDelay 2000;
#X obj 218 -103 hsl 128 15 0 2000 0 0 empty empty empty -2 -8 0 10
-262144 -1 -1 3200 1;
#X text 358 -133 buffer 2 secs;
#X text 353 -102 delay time;
#X floatatom 215 -82 5 0 0 0 - - -;
#X obj 184 -31 +~;
#X obj 215 -59 delread~ holdDelay;
#X obj 215 -32 *~;
#X obj 259 -32 tgl 15 0 empty empty empty 17 7 0 10 -262144 -1 -1 1
1;
#X obj 291 -32 loadbang;
#X connect 0 0 6 0;
#X connect 0 0 11 0;
#X connect 7 0 10 0;
#X connect 10 0 12 0;
#X connect 11 0 1 0;
#X connect 11 0 4 0;
#X connect 12 0 13 0;
#X connect 13 0 11 1;
#X connect 14 0 13 1;
#X connect 15 0 14 0;
#X restore 67 114 pd player;
#X connect 0 0 1 0;
#X connect 0 1 1 0;
#X connect 1 0 3 0;
#X connect 3 0 1 1;
#X connect 3 1 2 0;
#X connect 3 1 2 1;
